<svg xmlns="http://www.w3.org/2000/svg" version="1.1" xmlns:xlink="http://www.w3.org/1999/xlink" xmlns:svgjs="http://svgjs.dev/svgjs" width="2000" height="2242" viewBox="0 0 2000 2242"><g transform="matrix(1,0,0,1,-3.115264797507507,0)"><svg viewBox="0 0 321 360" data-background-color="#ffffff" preserveAspectRatio="xMidYMid meet" height="2242" width="2000" xmlns="http://www.w3.org/2000/svg" xmlns:xlink="http://www.w3.org/1999/xlink"><g id="tight-bounds" transform="matrix(1,0,0,1,0.5,0)"><svg viewBox="0 0 320 360" height="360" width="320"><g><svg></svg></g><g><svg viewBox="0 0 320 360" height="360" width="320"><g><path d="M20.961 227.22l3.726 4.658-1.863-6.056c-0.466-2.795-3.726 0.466-1.863 1.398M25.153 224.425c1.397 2.329 2.795 4.658 2.795 6.987 0 3.261 2.795 4.658 5.123 5.589-3.261-3.726-5.124-13.974-7.918-12.576M204.017 26.929c7.918 0 15.371-0.932 23.756 0.931 20.495 5.124 37.729 15.371 49.374 29.811l32.606 52.169c1.397 13.042 4.192 27.482 3.726 43.319 3.261 0 2.795-4.658 6.521-5.59-3.726 9.316-5.59 20.961-6.521 34.469-2.329-7.453 0-18.632 0.466-24.687-3.261 5.124-5.124 1.397-5.124-0.932 0.466-3.726-1.397-3.261-2.795-4.658-5.124-4.658-8.384-9.782-12.11-17.7 2.329-6.055 2.795-14.905-4.658-19.563-2.329-1.397-5.124-3.726-6.521-7.453-1.863-5.124-5.124-11.179-4.193-19.097 0.466-2.329-6.987 5.124-11.179 1.863-18.166-12.576-36.332-27.016-58.224-39.127-11.645 0-20.029-4.192-24.221-9.316-3.726-4.658-0.932-10.713 4.658-11.179 3.261 0 6.987-0.932 9.782 0.932 0.466-1.863 2.329-4.192 4.657-4.192M157.904 16.215l0.932 0.466c4.658 0.932 6.987 7.453 12.11 5.124 0 3.261 0.466 6.521-0.466 8.85-1.397 3.726-5.59 3.726-8.85 3.726-31.208-1.863-49.374 11.179-68.471 22.358-5.124 3.261-10.713 5.59-14.906 9.782-20.029 18.632-41.921 35.866-47.045 70.335l-4.192 38.195c-0.466 4.192-5.124 8.384-4.192 13.508l3.26 22.824c-3.261-3.261-5.124 0.932-4.192 2.795 0.466 1.397 2.329 6.055 5.124 1.863 3.726 6.987 7.453 20.495 12.576 26.55 15.837 18.632 36.332 35.4 53.101 52.169 4.192-0.932 7.453-0.932 8.384-3.727 1.397 2.795-1.397 5.59-3.726 6.056 7.453 4.658 15.837 8.85 27.016 9.781 14.44 0.932 27.948 3.261 40.524 6.522 6.521-1.863 13.042-2.795 20.029-3.261 2.329 0 3.726-3.726 6.521-4.658l0.466-4.658c2.795 4.192 2.329-1.397 0.466-4.192 3.261 2.795 4.192 5.124 5.589 6.987 0-1.397 3.726-6.521 3.727-0.466l0.931-6.055c1.397-0.932 1.863 5.124 3.261 0.931 1.397-4.192 4.192-0.932 6.987-2.329-0.932 1.863-0.466 5.59 2.794 3.261l3.727-3.261c2.329 5.59 6.055 3.261 7.918 2.329 20.495-13.042 40.99-28.413 60.553-43.784l-0.466 6.055 2.329-7.453c2.329 2.329 4.192 0.466 5.124-0.931 2.795-4.658 6.521-9.316 12.577-13.508-7.453 20.029-16.303 35.866-27.482 48.908l-4.658 5.59c0 3.261-0.932 7.453-4.658 7.918-1.863 0.466-5.59-0.932-8.384 1.863-1.397 1.863 3.261 5.59-0.466 2.795-3.261-2.329-6.521 0-10.248 0.932-2.795 0.932 1.863 3.726 2.795 5.589 0.932 1.863 1.863 3.726 1.398 6.056l-5.124-5.59c-6.055 3.261-9.782 9.316-14.906 13.974-2.329 1.863-1.397 5.124-1.397 7.918-3.261 0-6.987-0.932-8.85 0.932-1.397 1.863-0.932 4.658-0.932 7.453-4.658-0.466-5.124-7.453-9.315-6.056-4.192 0.932-8.85 1.397-12.577 3.727 2.795 5.59-4.658 2.329-3.726 3.26-6.987-4.192-13.042-7.453-20.495-4.658-15.837-5.124-35.4-2.795-49.84-0.931 0-2.329 0.466-4.658-0.466-5.124-0.932 2.329-3.726 1.397-3.26 1.397-8.85-6.055-17.7-9.782-27.016-14.905-8.384 0.932-16.303-3.261-18.632-5.59-6.521-6.055-13.974-2.795-20.029-4.192-13.042-3.261-17.7-16.769-19.098-26.084-0.932-4.658-4.658-6.521-6.055-6.056-6.055-19.563-15.371-37.263-22.824-55.429-1.863-4.658-1.397-9.316-1.397-14.44 2.329 0.932 4.658 0.466 4.192-2.794-2.329-15.371-7.918-27.016-13.974-38.195 3.261-15.837 3.726-34.469 11.179-48.443 6.521-12.576 18.632-19.098 27.016-29.811 2.795-3.726 2.795-8.85 5.59-12.11 9.316-9.316 18.632-19.098 28.879-27.482 4.658-3.726 10.247 0 17.234-1.397 2.329-8.384 11.645-15.837 20.495-13.508 3.726 0.932 11.179-8.85 13.508-9.782 3.726-1.397 1.863 3.726 1.863 6.987 8.85-6.987 20.961-10.713 32.14-14.906" fill="#2e30ff" fill-rule="nonzero" stroke="none" stroke-width="1" stroke-linecap="butt" stroke-linejoin="miter" stroke-miterlimit="10" stroke-dasharray="" stroke-dashoffset="0" font-family="none" font-weight="none" font-size="none" text-anchor="none" style="mix-blend-mode: normal" data-fill-palette-color="tertiary"></path></g><g transform="matrix(1,0,0,1,64,108.87014747350409)"><svg viewBox="0 0 192 142.25970505299182" height="142.25970505299182" width="192"><g><svg viewBox="0 0 192 142.25970505299182" height="142.25970505299182" width="192"><g><svg viewBox="0 0 192 142.25970505299182" height="142.25970505299182" width="192"><g><svg viewBox="0 0 192 142.25970505299182" height="142.25970505299182" width="192"><g id="textblocktransform"><svg viewBox="0 0 192 142.25970505299182" height="142.25970505299182" width="192" id="textblock"><g><svg viewBox="0 0 192 108.01834551000731" height="108.01834551000731" width="192"><g transform="matrix(1,0,0,1,0,0)"><svg width="192" viewBox="1.877777555565 -40.114285702764995 72.553472444435 40.82021162128299" height="108.01834551000731" data-palette-color="#2e30ff"><path d="M8.8-6.35L8.8-6.35Q9.4-6.35 10-6.5L10-6.5Q13.3-7 16.68-7.2 20.05-7.4 23.4-7.4L23.4-7.4Q24.05-7.4 24.65-7.25 25.25-7.1 25.8-6.95L25.8-6.95Q26-6.9 26.15-6.83 26.3-6.75 26.4-6.65L26.4-6.65Q27.6-5.95 27.4-4.7L27.4-4.7Q27.35-4.2 26.93-3.85 26.5-3.5 25.9-3.35L25.9-3.35Q24.45-3 23-2.88 21.55-2.75 20.1-2.65L20.1-2.65Q18.6-2.55 17.07-2.5 15.55-2.45 14.05-2.3L14.05-2.3Q12.05-2 10.1-1.7 8.15-1.4 6.25-0.95L6.25-0.95Q5.75-0.85 5.18-0.78 4.6-0.7 4.05-0.8L4.05-0.8Q2.9-1.05 2.3-1.98 1.7-2.9 1.95-4.1L1.95-4.1Q2.05-4.55 2.27-5 2.5-5.45 2.7-5.8L2.7-5.8Q4.15-8.15 5.78-10.38 7.4-12.6 9.1-14.75L9.1-14.75Q11.15-17.4 13.2-19.93 15.25-22.45 17.25-25.1L17.25-25.1Q18.95-27.15 20.6-29.3 22.25-31.45 23.8-33.7L23.8-33.7Q23.95-33.95 24.1-34.18 24.25-34.4 24.3-34.75L24.3-34.75Q23.5-34.6 22.7-34.48 21.9-34.35 21.1-34.25L21.1-34.25Q18.2-33.75 15.28-33.08 12.35-32.4 9.45-31.75L9.45-31.75Q8.65-31.6 7.93-31.43 7.2-31.25 6.45-31.15L6.45-31.15Q5.65-30.95 4.9-31.45L4.9-31.45Q3.95-32 3.88-33.05 3.8-34.1 4.6-34.75L4.6-34.75Q5.1-35.15 5.4-35.2L5.4-35.2Q7.05-35.65 8.68-36.18 10.3-36.7 11.85-37.1L11.85-37.1Q13.75-37.6 15.65-38 17.55-38.4 19.45-38.65L19.45-38.65Q20.75-38.95 22.08-39.18 23.4-39.4 24.7-39.55L24.7-39.55Q25.5-39.65 26.23-39.7 26.95-39.75 27.75-39.5L27.75-39.5Q29-39.15 29.68-38.18 30.35-37.2 30.1-35.9L30.1-35.9Q29.95-34.65 29.25-33.65L29.25-33.65Q28.2-31.75 26.93-29.93 25.65-28.1 24.25-26.35L24.25-26.35Q23.05-24.85 21.88-23.33 20.7-21.8 19.45-20.3L19.45-20.3Q18-18.45 16.53-16.63 15.05-14.8 13.6-12.95L13.6-12.95Q12.5-11.5 11.4-9.98 10.3-8.45 9.15-7L9.15-7Q9.05-6.9 8.93-6.75 8.8-6.6 8.8-6.35ZM39.25-22.9L39.25-22.9Q39.35-22.3 39.45-22.23 39.55-22.15 40.15-22.25L40.15-22.25Q44.1-23 48.05-22.55L48.05-22.55Q48.3-22.55 48.45-22.5 48.6-22.45 48.8-22.4L48.8-22.4Q49.65-21.95 49.72-21.13 49.8-20.3 49.1-19.7L49.1-19.7Q48.6-19.25 47.92-19 47.25-18.75 46.55-18.65L46.55-18.65Q45-18.45 43.45-18.2 41.9-17.95 40.3-17.65L40.3-17.65Q39.8-17.6 39.7-17.5 39.6-17.4 39.65-16.85L39.65-16.85Q39.9-13.8 40.1-10.85L40.1-10.85Q40.2-9.3 40.32-7.8 40.45-6.3 40.6-4.75L40.6-4.75Q40.7-4.05 40.77-3.33 40.85-2.6 41.2-1.9L41.2-1.9Q41.4-1.45 41.25-0.95 41.1-0.45 40.7-0.1L40.7-0.1Q40.25 0.25 39.67 0.25 39.1 0.25 38.65-0.05L38.65-0.05Q38.3-0.4 38.05-0.83 37.8-1.25 37.55-1.7L37.55-1.7Q37.1-3.05 36.77-4.45 36.45-5.85 36.2-7.3L36.2-7.3Q35.3-11.8 35-16.4L35-16.4Q34.8-19.2 34.67-21.98 34.55-24.75 34.45-27.5L34.45-27.5Q34.4-28.9 34.32-30.25 34.25-31.6 34.3-32.95L34.3-32.95Q34.3-33.15 34.27-33.35 34.25-33.55 34.1-33.7L34.1-33.7Q32.9-34.95 33.25-36.23 33.6-37.5 35.2-38.05L35.2-38.05Q36.6-38.5 38-38.75L38-38.75Q40.05-39 42.07-39.2 44.1-39.4 46.15-39.4L46.15-39.4Q47.3-39.5 48.4-39.4 49.5-39.3 50.6-38.95L50.6-38.95Q52.1-38.65 53.15-37.3L53.15-37.3Q53.65-36.6 53.5-35.8L53.5-35.8Q53.35-35.2 52.8-34.8 52.25-34.4 51.65-34.6L51.65-34.6Q50.1-35.15 48.6-35 47.1-34.85 45.65-34.75L45.65-34.75Q44.2-34.7 42.75-34.55 41.3-34.4 39.85-34.3L39.85-34.3Q39.25-34.25 39.15-34.15 39.05-34.05 39.05-33.4L39.05-33.4Q39.05-32.75 39.07-31.33 39.1-29.9 39.12-28.2 39.15-26.5 39.2-25.05 39.25-23.6 39.25-22.9ZM74.4-29.75L74.4-29.75Q74.45-27.95 74.05-26.25 73.65-24.55 72.95-22.9L72.95-22.9Q71.8-20.1 69.87-17.88 67.95-15.65 65.55-13.85L65.55-13.85Q64.25-12.9 62.92-12.1 61.6-11.3 60.15-10.75L60.15-10.75Q59.7-10.6 59.7-10L59.7-10Q59.7-8.4 59.67-7.4 59.65-6.4 59.62-5.4 59.6-4.4 59.6-2.8L59.6-2.8Q59.7-2.35 59.77-1.9 59.85-1.45 59.75-1L59.75-1Q59.75 0.6 58.55 0.7L58.55 0.7Q58 0.75 57.47 0.38 56.95 0 56.75-0.65L56.75-0.65Q56.5-1.55 56.3-2.48 56.1-3.4 55.95-4.3L55.95-4.3Q55.75-5.5 55.62-6.05 55.5-6.6 55.4-7.18 55.3-7.75 55.2-8.9L55.2-8.9 55.2-9.5Q55.25-10 55.17-10.43 55.1-10.85 54.75-11.3L54.75-11.3Q53.65-12.45 54.95-13.45L54.95-13.45Q55.2-13.65 55.22-13.8 55.25-13.95 55.25-14.15L55.25-14.15Q55.4-17.1 55.4-19.9L55.4-19.9Q55.5-22.1 55.6-24.28 55.7-26.45 55.8-28.6L55.8-28.6Q55.85-30.05 56.1-31.43 56.35-32.8 56.55-34.15L56.55-34.15Q56.6-34.35 56.65-34.5 56.7-34.65 56.6-34.85L56.6-34.85Q56.5-35.75 56.92-36.4 57.35-37.05 57.95-37.55L57.95-37.55Q60.4-39.55 63.6-40L63.6-40Q64.59-40.2 65.57-40.05 66.55-39.9 67.5-39.5L67.5-39.5Q73.25-37.5 74.4-31.4L74.4-31.4Q74.45-31 74.42-30.6 74.4-30.2 74.4-29.75ZM60.15-25.9L60.15-25.9Q60.05-23.6 59.97-21.95 59.9-20.3 59.85-18.8L59.85-18.8Q59.85-18.05 59.85-17.35 59.85-16.65 59.75-15.95L59.75-15.95Q59.75-15.85 59.77-15.68 59.8-15.5 59.9-15.4L59.9-15.4Q60.1-15.35 60.22-15.45 60.35-15.55 60.45-15.65L60.45-15.65Q61.15-16.15 61.82-16.65 62.5-17.15 63.15-17.65L63.15-17.65Q64.3-18.45 65.25-19.43 66.2-20.4 67.05-21.5L67.05-21.5Q68-22.75 68.65-24.2 69.3-25.65 69.65-27.2L69.65-27.2Q70.05-28.4 70.05-29.5L70.05-29.5Q70.05-30.2 69.95-30.83 69.84-31.45 69.59-32.05L69.59-32.05Q68.9-33.7 67.5-34.63 66.09-35.55 64.34-35.6 62.6-35.65 60.8-34.55L60.8-34.55Q60.3-34.2 60.35-33.65L60.35-33.65 60.35-32.3Q60.45-30.45 60.32-28.73 60.2-27 60.15-25.9Z" opacity="1" transform="matrix(1,0,0,1,0,0)" fill="#2e30ff" class="wordmark-text-0" data-fill-palette-color="primary" id="text-0"></path></svg></g></svg></g><g transform="matrix(1,0,0,1,0,123.78081456020962)"><svg viewBox="0 0 192 18.4788904927822" height="18.4788904927822" width="192"><g transform="matrix(1,0,0,1,0,0)"><svg width="192" viewBox="1.88055544445 -38.852083333319996 588.16944455555 56.607965686261174" height="18.4788904927822" data-palette-color="#2e30ff"><path d="M6.4-31.55L6.4-31.55Q6.3-28 6.2-24.75 6.1-21.5 6.15-18.35L6.15-18.35Q6.25-16.1 6.28-13.85 6.3-11.6 6.4-9.4L6.4-9.4Q6.45-8 6.48-6.6 6.5-5.2 6.7-3.85L6.7-3.85Q6.8-3 7-2.2L7-2.2Q7.15-1.65 7.08-1.35 7-1.05 6.55-0.8L6.55-0.8Q6.1-0.5 5.6-0.6 5.1-0.7 4.8-1.15L4.8-1.15Q4.45-1.7 4.2-2.35 3.95-3 3.85-3.65L3.85-3.65Q3.5-5.7 3.28-7.8 3.05-9.9 2.85-11.95L2.85-11.95Q2.7-14.65 2.53-17.32 2.35-20 2.2-22.7L2.2-22.7Q2-25.5 1.9-28.28 1.8-31.05 2.2-33.85L2.2-33.85Q2.3-34.6 2.5-35.33 2.7-36.05 2.85-36.8L2.85-36.8Q3-37.35 3.4-37.9L3.4-37.9Q3.65-38.25 3.95-38.45 4.25-38.65 4.75-38.65L4.75-38.65Q5.2-38.6 5.48-38.3 5.75-38 5.85-37.6L5.85-37.6Q6.15-36.8 6.23-36.02 6.3-35.25 6.3-34.4L6.3-34.4Q6.4-33.6 6.45-32.83 6.5-32.05 6.4-31.55ZM34.9-6.7L34.9-6.7Q34.45-5.9 34.13-5.28 33.8-4.65 33.4-4L33.4-4Q32.75-3.05 32.05-2.27 31.35-1.5 30.4-0.85L30.4-0.85Q28.6 0.35 26.65 0.05L26.65 0.05Q24.45-0.4 23.25-2.45L23.25-2.45Q22.65-3.5 22.4-4.63 22.15-5.75 22.15-7L22.15-7Q22.2-10.25 23.45-12.9 24.7-15.55 26.95-17.75L26.95-17.75Q27.65-18.35 28.4-18.9 29.15-19.45 30.1-19.6L30.1-19.6Q30.95-19.8 31.73-19.75 32.5-19.7 33.3-19.45L33.3-19.45Q33.4-19.4 33.6-19.38 33.8-19.35 34-19.45L34-19.45Q34-20.25 34.03-21.13 34.05-22 34-22.85L34-22.85Q34-24.8 34.15-26.65L34.15-26.65Q34.2-27.8 34.18-28.9 34.15-30 34.15-31.1L34.15-31.1Q34.2-32.05 34.23-33.05 34.25-34.05 34.35-35L34.35-35Q34.45-35.7 34.63-36.35 34.8-37 35.2-37.55L35.2-37.55Q35.55-38.35 36.4-38.35L36.4-38.35Q37.4-38.5 37.9-37.55L37.9-37.55Q38.25-37 38.43-36.38 38.6-35.75 38.65-35.05L38.65-35.05Q38.8-33.8 38.83-32.5 38.85-31.2 38.8-29.9L38.8-29.9Q38.8-26.9 38.75-23.88 38.7-20.85 38.65-17.8L38.65-17.8Q38.65-16.1 38.68-14.43 38.7-12.75 38.65-11.05L38.65-11.05Q38.6-9.35 38.6-7.63 38.6-5.9 38.8-4.15L38.8-4.15Q38.8-3.4 39-2.65L39-2.65Q39.5-1.35 38.25-0.7L38.25-0.7Q37.2-0.2 36.3-1.3L36.3-1.3Q36.1-1.65 35.95-2.05 35.8-2.45 35.7-2.8L35.7-2.8Q35.5-3.7 35.33-4.67 35.15-5.65 34.9-6.7ZM32.4-15.25L32.4-15.25Q31.85-15.35 31.45-15.18 31.05-15 30.7-14.75L30.7-14.75Q30.25-14.45 29.9-14.08 29.55-13.7 29.2-13.25L29.2-13.25Q28-11.7 27.38-10 26.75-8.3 26.95-6.35L26.95-6.35Q26.95-5.9 27.03-5.38 27.1-4.85 27.55-4.75L27.55-4.75Q27.95-4.65 28.28-5.03 28.6-5.4 28.8-5.75L28.8-5.75Q29.8-7.1 30.43-8.5 31.05-9.9 31.5-11.45L31.5-11.45Q31.8-12.4 32-13.33 32.2-14.25 32.4-15.25ZM57.85-11.05L57.85-11.05Q57.6-6.15 54.25-1.9L54.25-1.9Q53.65-1.1 52.85-0.53 52.05 0.05 51.05 0.35L51.05 0.35Q49.1 0.8 47.3-0.1L47.3-0.1Q46.65-0.5 46.05-1.07 45.45-1.65 45.05-2.3L45.05-2.3Q43.75-4.35 43.3-6.53 42.85-8.7 43-11L43-11Q43.2-13.05 43.9-14.93 44.6-16.8 45.95-18.35L45.95-18.35Q47.1-19.6 48.7-19.9L48.7-19.9Q49.45-20.1 50.05-19.93 50.65-19.75 51.2-19.3L51.2-19.3Q51.35-19.15 51.55-19.13 51.75-19.1 52-19.1L52-19.1Q53.35-19.25 54.43-18.7 55.5-18.15 56.3-17.05L56.3-17.05Q57.2-15.8 57.53-14.38 57.85-12.95 57.85-11.05ZM50.75-14.8L50.75-14.8Q50.2-14.8 49.6-14.65L49.6-14.65Q49.1-14.65 48.85-14.4 48.6-14.15 48.4-13.7L48.4-13.7Q47.7-11.85 47.68-10 47.65-8.15 48.2-6.25L48.2-6.25Q48.5-5.45 49.15-4.6L49.15-4.6Q49.5-4.25 49.68-4.23 49.85-4.2 50.2-4.55L50.2-4.55Q50.65-5 51.08-5.48 51.5-5.95 51.8-6.5L51.8-6.5Q52.05-7.1 52.33-7.75 52.6-8.4 52.75-9.05L52.75-9.05Q53-10 53.15-10.98 53.3-11.95 53.05-12.95L53.05-12.95Q52.8-14 52.3-14.4 51.8-14.8 50.75-14.8ZM71.55-13.25L71.55-13.25Q70.65-12.45 70.25-11.6L70.25-11.6Q69.2-9.75 68.55-7.7 67.9-5.65 67.55-3.5L67.55-3.5Q67.5-3 67.35-2.5 67.2-2 66.95-1.6L66.95-1.6Q66.2-0.35 64.95-0.5L64.95-0.5Q64.3-0.5 63.85-0.85 63.4-1.2 63.05-1.75L63.05-1.75Q62.85-2.2 62.78-2.7 62.7-3.2 62.6-3.7L62.6-3.7Q62.35-5.7 62.08-7.73 61.8-9.75 61.7-11.75L61.7-11.75Q61.6-13.1 61.7-14.45 61.8-15.8 62-17.15L62-17.15Q62-17.4 62.1-17.63 62.2-17.85 62.25-18.05L62.25-18.05Q62.7-19.3 63.9-19.15L63.9-19.15Q64.4-19.1 64.8-18.7 65.2-18.3 65.25-17.75L65.25-17.75Q65.4-16.55 65.53-15.4 65.65-14.25 65.85-13.1L65.85-13.1Q65.9-12.9 65.9-12.63 65.9-12.35 66.05-12.1L66.05-12.1Q66.3-12.2 66.35-12.38 66.4-12.55 66.45-12.7L66.45-12.7Q66.95-13.7 67.45-14.68 67.95-15.65 68.6-16.45L68.6-16.45Q68.9-16.85 69.2-17.23 69.5-17.6 69.9-17.9L69.9-17.9Q71.2-18.95 72.7-18.73 74.2-18.5 75.15-17.05L75.15-17.05Q75.6-16.25 75.85-15.38 76.1-14.5 76.2-13.6L76.2-13.6Q76.45-12.1 76.63-10.58 76.8-9.05 77-7.55L77-7.55Q77.1-6.65 77.28-5.78 77.45-4.9 77.55-4L77.55-4Q77.65-3.65 77.8-3.4 77.95-3.15 78.3-2.9L78.3-2.9Q79.35-2.35 78.95-1.15L78.95-1.15Q78.5 0.1 77.4 0.4 76.3 0.7 75.3-0.1L75.3-0.1Q74.85-0.5 74.55-0.95 74.25-1.4 74-1.9L74-1.9Q73.2-3.35 72.8-4.85 72.4-6.35 72.2-8L72.2-8Q72.05-9.15 71.95-10.35 71.85-11.55 71.6-12.7L71.6-12.7Q71.6-12.8 71.58-12.93 71.55-13.05 71.55-13.25ZM84.9-38.05L84.9-38.05Q85.7-38.05 86.18-37.43 86.65-36.8 86.45-35.9L86.45-35.9Q86.3-35.15 86.18-34.45 86.05-33.75 85.85-33.05L85.85-33.05Q85.8-32.7 85.78-32.4 85.75-32.1 85.85-31.75L85.85-31.75Q86-30.95 85.35-30.5L85.35-30.5Q84.65-30.05 83.9-30.55L83.9-30.55Q83.05-31.05 82.95-32L82.95-32Q82.75-33.15 82.83-34.35 82.9-35.55 83.15-36.7L83.15-36.7Q83.25-37.35 83.75-37.7 84.25-38.05 84.9-38.05ZM94.35-2.2L94.35-2.2Q95.5-3.05 96.15-4L96.15-4Q97.05-5.25 97.93-6.55 98.8-7.85 99.45-9.25L99.45-9.25Q99.5-9.45 99.55-9.58 99.6-9.7 99.6-9.85L99.6-9.85Q99.65-10.9 100.8-11.15L100.8-11.15Q101.95-11.25 102.5-10.3L102.5-10.3Q102.8-9.95 102.88-9.58 102.95-9.2 102.95-8.75L102.95-8.75Q102.75-6.1 101.55-3.65L101.55-3.65Q100.05-0.7 97.55 1.25L97.55 1.25Q97 1.7 96.43 2.02 95.85 2.35 95.15 2.5L95.15 2.5Q93.9 2.8 92.65 2.27 91.4 1.75 90.65 0.65L90.65 0.65Q90.2-0.1 89.85-0.93 89.5-1.75 89.25-2.6L89.25-2.6Q88.6-4.45 88.3-6.4 88-8.35 87.75-10.3L87.75-10.3Q87.35-13.1 87.13-16 86.9-18.9 86.9-21.8L86.9-21.8Q86.9-22.35 86.8-22.45 86.7-22.55 86.1-22.45L86.1-22.45Q85.45-22.3 84.78-22.13 84.1-21.95 83.4-21.85L83.4-21.85Q82.55-21.65 81.6-22.1L81.6-22.1Q80.7-22.65 80.6-23.63 80.5-24.6 81.2-25.3L81.2-25.3Q81.9-25.9 82.7-26.15L82.7-26.15Q83.6-26.4 84.48-26.65 85.35-26.9 86.25-27.1L86.25-27.1Q86.85-27.2 86.98-27.33 87.1-27.45 87.15-28.1L87.15-28.1Q87.2-29.8 87.43-31.48 87.65-33.15 88.1-34.85L88.1-34.85Q88.3-35.45 88.48-36.08 88.65-36.7 89-37.25L89-37.25Q89.3-37.65 89.6-37.98 89.9-38.3 90.3-38.5L90.3-38.5Q91.25-39.15 92.4-38.6L92.4-38.6Q92.9-38.25 93.03-37.75 93.15-37.25 93.05-36.7L93.05-36.7Q92.95-35.6 92.65-34.52 92.35-33.45 92.25-32.3L92.25-32.3Q92.15-31.35 92.03-30.4 91.9-29.45 91.8-28.45L91.8-28.45Q91.8-28 91.88-27.93 91.95-27.85 92.45-27.85L92.45-27.85Q93.45-27.85 94.35-27.9 95.25-27.95 96.2-27.95L96.2-27.95Q97.9-27.95 99.05-26.65L99.05-26.65Q99.35-26.4 99.53-26.08 99.7-25.75 99.75-25.4L99.75-25.4Q99.85-24.55 99.2-23.93 98.55-23.3 97.85-23.6L97.85-23.6Q97.75-23.6 97.63-23.63 97.5-23.65 97.35-23.6L97.35-23.6Q96.25-23.2 95.13-23.25 94-23.3 92.85-23.15L92.85-23.15 92.15-23.15Q91.55-23.15 91.55-22.55L91.55-22.55Q91.65-21.6 91.65-20.68 91.65-19.75 91.7-18.8L91.7-18.8Q91.8-16.35 92.05-13.9 92.3-11.45 92.7-9.05L92.7-9.05Q92.85-7.8 93.08-6.58 93.3-5.35 93.65-4.1L93.65-4.1Q93.75-3.65 93.95-3.2 94.15-2.75 94.35-2.2ZM123-17.15L123-17.15Q123.25-17.4 123.48-17.7 123.7-18 123.9-18.25L123.9-18.25Q125.55-20.05 127.7-20.08 129.85-20.1 131.5-18.05L131.5-18.05Q132.45-16.85 132.9-15.43 133.35-14 133.35-12.5L133.35-12.5Q133.45-9.4 132.6-6.58 131.75-3.75 129.7-1.25L129.7-1.25Q129-0.4 128.1 0.2L128.1 0.2Q127.1 0.85 126.03 1.33 124.95 1.8 123.75 1.9L123.75 1.9Q123.15 2 123.15 2.65L123.15 2.65Q123.15 3.6 123.18 4.55 123.2 5.5 123.3 6.5L123.3 6.5Q123.5 8.45 123.73 10.38 123.95 12.3 124.05 14.3L124.05 14.3Q124.05 14.75 124.05 15.15 124.05 15.55 124 15.95L124 15.95Q123.6 17.6 121.95 17.75L121.95 17.75Q120.5 17.85 119.85 16.25L119.85 16.25Q119.55 15.15 119.4 14.2L119.4 14.2Q119.05 11.55 118.83 8.97 118.6 6.4 118.35 3.8L118.35 3.8Q118.2 0.85 118.13-2.05 118.05-4.95 118-7.85L118-7.85Q117.95-9.7 117.98-11.55 118-13.4 118.05-15.25L118.05-15.25Q118.15-16.1 118.25-16.95 118.35-17.8 118.45-18.65L118.45-18.65Q118.55-19.15 118.75-19.68 118.95-20.2 119.35-20.6L119.35-20.6Q120.25-21.5 121.33-21.25 122.4-21 122.8-19.85L122.8-19.85Q122.9-19.45 122.98-19 123.05-18.55 122.95-18.1L122.95-18.1Q122.9-17.9 122.88-17.68 122.85-17.45 122.85-17.2L122.85-17.2Q122.95-17.2 122.98-17.18 123-17.15 123-17.15ZM127.5-15.35L127.5-15.35Q125.6-12.25 124.75-8.88 123.9-5.5 123.4-2L123.4-2Q123.85-2.05 124.08-2.27 124.3-2.5 124.5-2.65L124.5-2.65Q126.95-4.65 127.85-7.23 128.75-9.8 128.65-12.85L128.65-12.85Q128.6-13.5 128.38-14.1 128.15-14.7 127.5-15.35ZM141.85-4.75L141.85-4.75Q141.85-4.05 141.9-3.3 141.95-2.55 141.85-1.75L141.85-1.75Q141.85-1.55 141.85-1.28 141.85-1 141.8-0.7L141.8-0.7Q141.65 0.3 140.75 0.5L140.75 0.5Q139.75 0.55 139.15-0.1L139.15-0.1Q138.8-0.5 138.63-1 138.45-1.5 138.25-2L138.25-2Q138.05-2.9 137.93-3.8 137.8-4.7 137.75-5.6L137.75-5.6Q137.45-8.35 137.38-11.1 137.3-13.85 137.2-16.6L137.2-16.6Q137.15-20.55 137.13-24.45 137.1-28.35 137.15-32.3L137.15-32.3Q137.15-32.65 137.18-32.98 137.2-33.3 137.3-33.65L137.3-33.65Q137.55-34.35 138.1-34.83 138.65-35.3 139.4-35.3L139.4-35.3Q140.95-35.3 141.4-33.65L141.4-33.65Q141.55-33.2 141.55-32.75L141.55-32.75Q141.75-29.5 141.83-26.25 141.9-23 141.95-19.75L141.95-19.75Q141.95-19.4 141.95-18.1 141.95-16.8 141.95-15.03 141.95-13.25 141.93-11.3 141.9-9.35 141.9-7.63 141.9-5.9 141.85-4.75ZM156.85-3.85L156.85-3.85Q156.5-3.6 156.33-3.23 156.15-2.85 155.9-2.6L155.9-2.6Q155.4-1.85 154.8-1.23 154.2-0.6 153.35-0.25L153.35-0.25Q151.95 0.4 150.53-0.18 149.1-0.75 148.55-2.2L148.55-2.2Q147.45-5 147.93-7.55 148.4-10.1 150.2-12.4L150.2-12.4Q151.2-13.65 152.58-14.18 153.95-14.7 155.6-14.35L155.6-14.35Q155.7-14.35 155.78-14.33 155.85-14.3 155.95-14.3L155.95-14.3Q156.15-14.7 156.05-15.03 155.95-15.35 155.9-15.7L155.9-15.7Q155.7-16.8 155.43-17.8 155.15-18.8 154.75-19.75L154.75-19.75Q154.15-21.05 153.68-21.15 153.2-21.25 152.15-20.35L152.15-20.35Q150.5-18.95 149.3-17L149.3-17Q148.9-16.5 148.9-16L148.9-16Q148.9-14.9 147.85-14.6L147.85-14.6Q147.5-14.5 147-14.7 146.5-14.9 146.2-15.25L146.2-15.25Q145.55-16.25 145.75-17.45L145.75-17.45Q145.95-18.6 146.4-19.63 146.85-20.65 147.5-21.55L147.5-21.55Q148.2-22.55 149-23.38 149.8-24.2 150.8-24.85L150.8-24.85Q152.4-25.85 154.28-25.73 156.15-25.6 157.6-23.95L157.6-23.95Q158.25-23.3 158.63-22.53 159-21.75 159.35-20.9L159.35-20.9Q159.9-19.35 160.28-17.75 160.65-16.15 160.85-14.5L160.85-14.5Q161.1-12.25 161.3-10.05 161.5-7.85 161.65-5.6L161.65-5.6Q161.8-4.3 161.65-2.95L161.65-2.95Q161.55-1.45 160.4-0.83 159.25-0.2 158-1L158-1Q157.5-1.35 157.3-1.85 157.1-2.35 157-2.9L157-2.9Q156.95-3.15 156.95-3.38 156.95-3.6 156.85-3.85ZM152.6-5L152.6-5Q153.4-5.85 154.15-6.68 154.9-7.5 155.45-8.5L155.45-8.5Q155.6-8.8 155.43-9.22 155.25-9.65 154.9-9.85L154.9-9.85Q154.55-10.1 154.38-9.93 154.2-9.75 153.95-9.65L153.95-9.65Q153.9-9.55 153.8-9.45 153.7-9.35 153.65-9.25L153.65-9.25Q153-8.3 152.7-7.28 152.4-6.25 152.6-5ZM176.35-7.25L176.35-7.25Q175.9-6.6 175.53-6 175.15-5.4 174.7-4.85L174.7-4.85Q174.15-4.2 173.53-3.65 172.9-3.1 172.1-2.75L172.1-2.75Q170.2-2.05 168.7-3.1L168.7-3.1Q168.05-3.55 167.63-4.2 167.2-4.85 166.85-5.6L166.85-5.6Q166.2-7 165.88-8.53 165.55-10.05 165.5-11.6L165.5-11.6Q165.5-12.75 165.58-13.95 165.65-15.15 166-16.25L166-16.25Q166.2-17.05 166.75-17.75L166.75-17.75Q167.05-18 167.43-18.15 167.8-18.3 168.25-18.2L168.25-18.2Q169.05-18 169.15-17L169.15-17Q169.25-16.35 169.25-15.68 169.25-15 169.3-14.3L169.3-14.3Q169.3-12.5 169.45-10.75 169.6-9 170.05-7.25L170.05-7.25Q170.15-6.85 170.3-6.38 170.45-5.9 170.9-5.8L170.9-5.8Q171.35-5.7 171.65-6.03 171.95-6.35 172.25-6.65L172.25-6.65Q172.95-7.35 173.43-8.15 173.9-8.95 174.25-9.85L174.25-9.85Q174.9-11.05 175.28-12.3 175.65-13.55 176-14.8L176-14.8Q176.1-15.25 176.08-15.7 176.05-16.15 176.05-16.6L176.05-16.6Q176.05-17.3 176.1-17.98 176.15-18.65 176.2-19.3L176.2-19.3Q176.35-20.15 176.65-20.65L176.65-20.65Q177.3-21.5 178.3-21.45 179.3-21.4 179.75-20.45L179.75-20.45Q180.1-19.8 180.2-19.13 180.3-18.45 180.35-17.75L180.35-17.75Q180.6-15.95 180.65-14.1 180.7-12.25 180.7-10.4L180.7-10.4Q180.7-7.6 180.7-4.73 180.7-1.85 180.65 0.95L180.65 0.95Q180.6 2.55 180.45 4.17 180.3 5.8 179.9 7.4L179.9 7.4Q179.6 8.55 179.08 9.58 178.55 10.6 177.55 11.45L177.55 11.45Q176.9 12 176.15 12.2 175.4 12.4 174.55 12.1L174.55 12.1Q173.65 11.85 173.18 11.15 172.7 10.45 172.55 9.65L172.55 9.65Q172.1 7.75 172.3 5.95L172.3 5.95Q172.4 5.55 172.55 5.18 172.7 4.8 173 4.55L173 4.55Q173.15 4.3 173.43 4.17 173.7 4.05 173.95 4.15L173.95 4.15Q174.65 4.4 174.7 5L174.7 5Q174.7 5.15 174.75 5.35 174.8 5.55 174.8 5.75L174.8 5.75Q174.8 6.75 175.3 7.6L175.3 7.6Q175.6 7.55 175.7 7.38 175.8 7.2 175.85 7L175.85 7Q176.1 6.2 176.23 5.43 176.35 4.65 176.35 3.85L176.35 3.85Q176.45 2.8 176.55 1.73 176.65 0.65 176.65-0.4L176.65-0.4Q176.6-2.1 176.6-3.83 176.6-5.55 176.35-7.25ZM199.8-2.2L199.8-2.2Q200.95-3.05 201.6-4L201.6-4Q202.5-5.25 203.38-6.55 204.25-7.85 204.9-9.25L204.9-9.25Q204.95-9.45 205-9.58 205.05-9.7 205.05-9.85L205.05-9.85Q205.1-10.9 206.25-11.15L206.25-11.15Q207.4-11.25 207.95-10.3L207.95-10.3Q208.25-9.95 208.33-9.58 208.4-9.2 208.4-8.75L208.4-8.75Q208.2-6.1 207-3.65L207-3.65Q205.5-0.7 203 1.25L203 1.25Q202.45 1.7 201.88 2.02 201.3 2.35 200.6 2.5L200.6 2.5Q199.35 2.8 198.1 2.27 196.85 1.75 196.1 0.65L196.1 0.65Q195.65-0.1 195.3-0.93 194.95-1.75 194.7-2.6L194.7-2.6Q194.05-4.45 193.75-6.4 193.45-8.35 193.2-10.3L193.2-10.3Q192.8-13.1 192.58-16 192.35-18.9 192.35-21.8L192.35-21.8Q192.35-22.35 192.25-22.45 192.15-22.55 191.55-22.45L191.55-22.45Q190.9-22.3 190.23-22.13 189.55-21.95 188.85-21.85L188.85-21.85Q188-21.65 187.05-22.1L187.05-22.1Q186.15-22.65 186.05-23.63 185.95-24.6 186.65-25.3L186.65-25.3Q187.35-25.9 188.15-26.15L188.15-26.15Q189.05-26.4 189.93-26.65 190.8-26.9 191.7-27.1L191.7-27.1Q192.3-27.2 192.43-27.33 192.55-27.45 192.6-28.1L192.6-28.1Q192.65-29.8 192.88-31.48 193.1-33.15 193.55-34.85L193.55-34.85Q193.75-35.45 193.93-36.08 194.1-36.7 194.45-37.25L194.45-37.25Q194.75-37.65 195.05-37.98 195.35-38.3 195.75-38.5L195.75-38.5Q196.7-39.15 197.85-38.6L197.85-38.6Q198.35-38.25 198.48-37.75 198.6-37.25 198.5-36.7L198.5-36.7Q198.4-35.6 198.1-34.52 197.8-33.45 197.7-32.3L197.7-32.3Q197.6-31.35 197.48-30.4 197.35-29.45 197.25-28.45L197.25-28.45Q197.25-28 197.33-27.93 197.4-27.85 197.9-27.85L197.9-27.85Q198.9-27.85 199.8-27.9 200.7-27.95 201.65-27.95L201.65-27.95Q203.35-27.95 204.5-26.65L204.5-26.65Q204.8-26.4 204.98-26.08 205.15-25.75 205.2-25.4L205.2-25.4Q205.3-24.55 204.65-23.93 204-23.3 203.3-23.6L203.3-23.6Q203.2-23.6 203.08-23.63 202.95-23.65 202.8-23.6L202.8-23.6Q201.7-23.2 200.58-23.25 199.45-23.3 198.3-23.15L198.3-23.15 197.6-23.15Q197-23.15 197-22.55L197-22.55Q197.1-21.6 197.1-20.68 197.1-19.75 197.15-18.8L197.15-18.8Q197.25-16.35 197.5-13.9 197.75-11.45 198.15-9.05L198.15-9.05Q198.3-7.8 198.53-6.58 198.75-5.35 199.1-4.1L199.1-4.1Q199.2-3.65 199.4-3.2 199.6-2.75 199.8-2.2ZM216.85-16.1L217.05-16.1Q217.25-16.65 217.38-17.23 217.5-17.8 217.65-18.4L217.65-18.4Q217.85-19.1 218.15-19.7 218.45-20.3 218.95-20.8L218.95-20.8Q219.8-21.65 220.9-21.85 222-22.05 223.05-21.4L223.05-21.4Q224.35-20.55 224.95-19L224.95-19Q225.55-17.6 225.83-16.1 226.1-14.6 226.3-13.1L226.3-13.1Q226.45-10.85 226.3-8.65 226.15-6.45 225.9-4.25L225.9-4.25Q225.85-3.85 225.73-3.48 225.6-3.1 225.3-2.75L225.3-2.75Q225.05-2.35 224.58-2.15 224.1-1.95 223.65-2.15L223.65-2.15Q222.8-2.35 222.7-3.5L222.7-3.5Q222.5-5.35 222.28-7.2 222.05-9.05 221.8-10.9L221.8-10.9Q221.6-12 221.55-13.05 221.5-14.1 221.25-15.1L221.25-15.1Q221.05-15.1 221-14.98 220.95-14.85 220.9-14.75L220.9-14.75Q219.8-12.2 219.13-9.58 218.45-6.95 218.2-4.15L218.2-4.15Q218.15-3.35 218.03-2.55 217.9-1.75 217.8-0.95L217.8-0.95Q217.55 0.65 216 0.8L216 0.8Q215.4 0.8 214.85 0.33 214.3-0.15 214.2-0.85L214.2-0.85Q214.05-1.65 213.98-2.4 213.9-3.15 213.85-3.95L213.85-3.95Q213.65-5.7 213.45-7.48 213.25-9.25 213.1-11L213.1-11Q212.9-13.05 212.7-15.08 212.5-17.1 212.4-19.1L212.4-19.1Q212.3-20.9 212.25-22.65 212.2-24.4 212.2-26.2L212.2-26.2Q212.2-28.1 212.23-30.08 212.25-32.05 212.65-33.95L212.65-33.95Q212.75-34.55 212.93-35.13 213.1-35.7 213.45-36.2L213.45-36.2Q213.85-36.8 214.48-37.1 215.1-37.4 215.7-37.15L215.7-37.15Q217.05-36.85 217.05-35.2L217.05-35.2Q217.15-32.25 216.98-29.25 216.8-26.25 216.85-23.3L216.85-23.3Q216.9-21.5 216.88-19.7 216.85-17.9 216.85-16.1L216.85-16.1ZM230.15-8.95L230.15-8.95Q230.15-11.3 230.83-13.48 231.5-15.65 232.6-17.75L232.6-17.75Q233.15-18.75 233.9-19.65 234.65-20.55 235.6-21.2L235.6-21.2Q236.9-22.1 238.3-22.25L238.3-22.25Q239.8-22.35 241-21.6 242.2-20.85 242.85-19.58 243.5-18.3 243.25-16.7L243.25-16.7Q243.2-16.25 243.05-15.75 242.9-15.25 242.65-14.8L242.65-14.8Q242-13.55 241.13-12.43 240.25-11.3 239-10.45L239-10.45Q238.2-9.9 237.33-9.53 236.45-9.15 235.45-9.2L235.45-9.2Q235.1-9.2 235.03-9.1 234.95-9 234.95-8.65L234.95-8.65Q234.9-7.85 235.05-7.05 235.2-6.25 235.45-5.45L235.45-5.45Q235.75-4.8 236-4.7 236.25-4.6 236.9-5L236.9-5Q237.85-5.5 238.6-6.35L238.6-6.35Q239.05-6.75 239.5-7.08 239.95-7.4 240.4-7.75L240.4-7.75Q240.6-7.95 241-8.15L241-8.15Q241.75-8.4 242.28-8.03 242.8-7.65 242.8-6.85L242.8-6.85Q242.8-6.5 242.75-6.15 242.7-5.8 242.6-5.45L242.6-5.45Q241.95-3.55 240.75-2.15 239.55-0.75 237.5-0.1L237.5-0.1Q234.65 0.65 232.55-1.45L232.55-1.45Q231.45-2.55 231-3.9 230.55-5.25 230.3-6.7L230.3-6.7Q230.25-7.25 230.23-7.83 230.2-8.4 230.15-8.95ZM239.5-17.2L239.5-17.2Q239.5-17.55 239.45-17.82 239.4-18.1 239.15-18.2L239.15-18.2Q238.8-18.4 238.25-17.95L238.25-17.95Q238.05-17.85 237.9-17.7 237.75-17.55 237.55-17.35L237.55-17.35Q236.9-16.55 236.48-15.6 236.05-14.65 235.7-13.7L235.7-13.7Q235.45-13.35 235.75-13.15L235.75-13.15Q235.85-13.05 236.03-13.08 236.2-13.1 236.3-13.15L236.3-13.15Q238.55-14.4 239.45-16.85L239.45-16.85Q239.5-16.95 239.5-17.07 239.5-17.2 239.5-17.2ZM273.25-11.05L273.25-11.05Q273-6.15 269.65-1.9L269.65-1.9Q269.05-1.1 268.25-0.53 267.45 0.05 266.45 0.35L266.45 0.35Q264.5 0.8 262.7-0.1L262.7-0.1Q262.05-0.5 261.45-1.07 260.85-1.65 260.45-2.3L260.45-2.3Q259.15-4.35 258.7-6.53 258.25-8.7 258.4-11L258.4-11Q258.6-13.05 259.3-14.93 260-16.8 261.35-18.35L261.35-18.35Q262.5-19.6 264.1-19.9L264.1-19.9Q264.85-20.1 265.45-19.93 266.05-19.75 266.6-19.3L266.6-19.3Q266.75-19.15 266.95-19.13 267.15-19.1 267.4-19.1L267.4-19.1Q268.75-19.25 269.83-18.7 270.9-18.15 271.7-17.05L271.7-17.05Q272.6-15.8 272.93-14.38 273.25-12.95 273.25-11.05ZM266.15-14.8L266.15-14.8Q265.6-14.8 265-14.65L265-14.65Q264.5-14.65 264.25-14.4 264-14.15 263.8-13.7L263.8-13.7Q263.1-11.85 263.08-10 263.05-8.15 263.6-6.25L263.6-6.25Q263.9-5.45 264.55-4.6L264.55-4.6Q264.9-4.25 265.08-4.23 265.25-4.2 265.6-4.55L265.6-4.55Q266.05-5 266.48-5.48 266.9-5.95 267.2-6.5L267.2-6.5Q267.45-7.1 267.73-7.75 268-8.4 268.15-9.05L268.15-9.05Q268.4-10 268.55-10.98 268.7-11.95 268.45-12.95L268.45-12.95Q268.2-14 267.7-14.4 267.2-14.8 266.15-14.8ZM289.8-6.7L289.8-6.7Q289.35-5.9 289.03-5.28 288.7-4.65 288.3-4L288.3-4Q287.65-3.05 286.95-2.27 286.25-1.5 285.3-0.85L285.3-0.85Q283.5 0.35 281.55 0.05L281.55 0.05Q279.35-0.4 278.15-2.45L278.15-2.45Q277.55-3.5 277.3-4.63 277.05-5.75 277.05-7L277.05-7Q277.1-10.25 278.35-12.9 279.6-15.55 281.85-17.75L281.85-17.75Q282.55-18.35 283.3-18.9 284.05-19.45 285-19.6L285-19.6Q285.85-19.8 286.63-19.75 287.4-19.7 288.2-19.45L288.2-19.45Q288.3-19.4 288.5-19.38 288.7-19.35 288.9-19.45L288.9-19.45Q288.9-20.25 288.93-21.13 288.95-22 288.9-22.85L288.9-22.85Q288.9-24.8 289.05-26.65L289.05-26.65Q289.1-27.8 289.08-28.9 289.05-30 289.05-31.1L289.05-31.1Q289.1-32.05 289.13-33.05 289.15-34.05 289.25-35L289.25-35Q289.35-35.7 289.53-36.35 289.7-37 290.1-37.55L290.1-37.55Q290.45-38.35 291.3-38.35L291.3-38.35Q292.3-38.5 292.8-37.55L292.8-37.55Q293.15-37 293.33-36.38 293.5-35.75 293.55-35.05L293.55-35.05Q293.7-33.8 293.73-32.5 293.75-31.2 293.7-29.9L293.7-29.9Q293.7-26.9 293.65-23.88 293.6-20.85 293.55-17.8L293.55-17.8Q293.55-16.1 293.58-14.43 293.6-12.75 293.55-11.05L293.55-11.05Q293.5-9.35 293.5-7.63 293.5-5.9 293.7-4.15L293.7-4.15Q293.7-3.4 293.9-2.65L293.9-2.65Q294.4-1.35 293.15-0.7L293.15-0.7Q292.1-0.2 291.2-1.3L291.2-1.3Q291-1.65 290.85-2.05 290.7-2.45 290.6-2.8L290.6-2.8Q290.4-3.7 290.23-4.67 290.05-5.65 289.8-6.7ZM287.3-15.25L287.3-15.25Q286.75-15.35 286.35-15.18 285.95-15 285.6-14.75L285.6-14.75Q285.15-14.45 284.8-14.08 284.45-13.7 284.1-13.25L284.1-13.25Q282.9-11.7 282.28-10 281.65-8.3 281.85-6.35L281.85-6.35Q281.85-5.9 281.93-5.38 282-4.85 282.45-4.75L282.45-4.75Q282.85-4.65 283.18-5.03 283.5-5.4 283.7-5.75L283.7-5.75Q284.7-7.1 285.33-8.5 285.95-9.9 286.4-11.45L286.4-11.45Q286.7-12.4 286.9-13.33 287.1-14.25 287.3-15.25ZM310.6-6.7L310.6-6.7Q310.15-5.9 309.83-5.28 309.5-4.65 309.1-4L309.1-4Q308.45-3.05 307.75-2.27 307.05-1.5 306.1-0.85L306.1-0.85Q304.3 0.35 302.35 0.05L302.35 0.05Q300.15-0.4 298.95-2.45L298.95-2.45Q298.35-3.5 298.1-4.63 297.85-5.75 297.85-7L297.85-7Q297.9-10.25 299.15-12.9 300.4-15.55 302.65-17.75L302.65-17.75Q303.35-18.35 304.1-18.9 304.85-19.45 305.8-19.6L305.8-19.6Q306.65-19.8 307.43-19.75 308.2-19.7 309-19.45L309-19.45Q309.1-19.4 309.3-19.38 309.5-19.35 309.7-19.45L309.7-19.45Q309.7-20.25 309.73-21.13 309.75-22 309.7-22.85L309.7-22.85Q309.7-24.8 309.85-26.65L309.85-26.65Q309.9-27.8 309.88-28.9 309.85-30 309.85-31.1L309.85-31.1Q309.9-32.05 309.93-33.05 309.95-34.05 310.05-35L310.05-35Q310.15-35.7 310.33-36.35 310.5-37 310.9-37.55L310.9-37.55Q311.25-38.35 312.1-38.35L312.1-38.35Q313.1-38.5 313.6-37.55L313.6-37.55Q313.95-37 314.13-36.38 314.3-35.75 314.35-35.05L314.35-35.05Q314.5-33.8 314.53-32.5 314.55-31.2 314.5-29.9L314.5-29.9Q314.5-26.9 314.45-23.88 314.4-20.85 314.35-17.8L314.35-17.8Q314.35-16.1 314.38-14.43 314.4-12.75 314.35-11.05L314.35-11.05Q314.3-9.35 314.3-7.63 314.3-5.9 314.5-4.15L314.5-4.15Q314.5-3.4 314.7-2.65L314.7-2.65Q315.2-1.35 313.95-0.7L313.95-0.7Q312.9-0.2 312-1.3L312-1.3Q311.8-1.65 311.65-2.05 311.5-2.45 311.4-2.8L311.4-2.8Q311.2-3.7 311.03-4.67 310.85-5.65 310.6-6.7ZM308.1-15.25L308.1-15.25Q307.55-15.35 307.15-15.18 306.75-15 306.4-14.75L306.4-14.75Q305.95-14.45 305.6-14.08 305.25-13.7 304.9-13.25L304.9-13.25Q303.7-11.7 303.08-10 302.45-8.3 302.65-6.35L302.65-6.35Q302.65-5.9 302.73-5.38 302.8-4.85 303.25-4.75L303.25-4.75Q303.65-4.65 303.98-5.03 304.3-5.4 304.5-5.75L304.5-5.75Q305.5-7.1 306.13-8.5 306.75-9.9 307.2-11.45L307.2-11.45Q307.5-12.4 307.7-13.33 307.9-14.25 308.1-15.25ZM327.35-3.8L327.35-3.8Q327-3.9 326.68-4.03 326.35-4.15 326-4.25L326-4.25Q319.2-6.85 318.65-14L318.65-14Q318.45-16.3 319.35-18.25 320.25-20.2 322.15-21.55L322.15-21.55Q323.35-22.4 324.65-22.65 325.95-22.9 327.35-22.15L327.35-22.15Q327.8-21.95 328.23-21.6 328.65-21.25 328.9-20.8L328.9-20.8Q331.55-16.8 329.8-12.35L329.8-12.35Q329.65-11.8 329.13-11.5 328.6-11.2 328.1-11.3L328.1-11.3Q326.95-11.4 326.8-12.85L326.8-12.85Q326.8-13.55 326.83-14.23 326.85-14.9 326.75-15.55L326.75-15.55Q326.7-16.1 326.53-16.63 326.35-17.15 326-17.6L326-17.6Q325.45-18.2 324.85-17.75L324.85-17.75Q324.25-17.25 323.9-16.57 323.55-15.9 323.35-15.1L323.35-15.1Q323.1-13.4 324.08-11.7 325.05-10 326.45-9.25L326.45-9.25Q327.3-8.8 328.15-8.53 329-8.25 329.95-8.05L329.95-8.05Q330.4-7.95 330.83-7.8 331.25-7.65 331.7-7.55L331.7-7.55Q332.85-7.1 333.35-6.08 333.85-5.05 333.55-3.85L333.55-3.85Q333.35-2.75 332.45-1.85L332.45-1.85Q331.35-0.6 329.95 0.25 328.55 1.1 327.1 1.9L327.1 1.9Q326.2 2.35 325.33 2.73 324.45 3.1 323.45 3.25L323.45 3.25Q323 3.3 322.58 3.25 322.15 3.2 321.7 3.1L321.7 3.1Q320.45 2.7 320.2 1.68 319.95 0.65 320.3-0.2L320.3-0.2Q320.55-0.9 321.05-1.4L321.05-1.4Q321.45-1.75 321.88-1.85 322.3-1.95 322.7-1.7L322.7-1.7Q323.05-1.5 323.3-1.55 323.55-1.6 323.8-1.7L323.8-1.7Q324.5-2.1 325.23-2.45 325.95-2.8 326.65-3.2L326.65-3.2Q326.85-3.3 327.05-3.45 327.25-3.6 327.35-3.8ZM339.4-1.55L339.4-1.55Q338.6-1.45 338-2.1 337.4-2.75 337.4-3.4L337.4-3.4Q337.35-4.2 337.88-4.78 338.4-5.35 339.2-5.45L339.2-5.45Q339.8-5.5 340.43-5.03 341.05-4.55 341.15-3.85L341.15-3.85 341.15-3.05Q341.05-2.2 340.65-1.88 340.25-1.55 339.4-1.55ZM360.65-31.55L360.65-31.55Q360.55-28 360.45-24.75 360.35-21.5 360.4-18.35L360.4-18.35Q360.5-16.1 360.53-13.85 360.55-11.6 360.65-9.4L360.65-9.4Q360.7-8 360.73-6.6 360.75-5.2 360.95-3.85L360.95-3.85Q361.05-3 361.25-2.2L361.25-2.2Q361.4-1.65 361.33-1.35 361.25-1.05 360.8-0.8L360.8-0.8Q360.35-0.5 359.85-0.6 359.35-0.7 359.05-1.15L359.05-1.15Q358.7-1.7 358.45-2.35 358.2-3 358.1-3.65L358.1-3.65Q357.75-5.7 357.53-7.8 357.3-9.9 357.1-11.95L357.1-11.95Q356.95-14.65 356.78-17.32 356.6-20 356.45-22.7L356.45-22.7Q356.25-25.5 356.15-28.28 356.05-31.05 356.45-33.85L356.45-33.85Q356.55-34.6 356.75-35.33 356.95-36.05 357.1-36.8L357.1-36.8Q357.25-37.35 357.65-37.9L357.65-37.9Q357.9-38.25 358.2-38.45 358.5-38.65 359-38.65L359-38.65Q359.45-38.6 359.73-38.3 360-38 360.1-37.6L360.1-37.6Q360.4-36.8 360.48-36.02 360.55-35.25 360.55-34.4L360.55-34.4Q360.65-33.6 360.7-32.83 360.75-32.05 360.65-31.55ZM381.4-17.15L381.4-17.15Q381.65-17.4 381.88-17.7 382.1-18 382.3-18.25L382.3-18.25Q383.95-20.05 386.1-20.08 388.25-20.1 389.9-18.05L389.9-18.05Q390.85-16.85 391.3-15.43 391.75-14 391.75-12.5L391.75-12.5Q391.85-9.4 391-6.58 390.15-3.75 388.1-1.25L388.1-1.25Q387.4-0.4 386.5 0.2L386.5 0.2Q385.5 0.85 384.43 1.33 383.35 1.8 382.15 1.9L382.15 1.9Q381.55 2 381.55 2.65L381.55 2.65Q381.55 3.6 381.58 4.55 381.6 5.5 381.7 6.5L381.7 6.5Q381.9 8.45 382.13 10.38 382.35 12.3 382.45 14.3L382.45 14.3Q382.45 14.75 382.45 15.15 382.45 15.55 382.4 15.95L382.4 15.95Q382 17.6 380.35 17.75L380.35 17.75Q378.9 17.85 378.25 16.25L378.25 16.25Q377.95 15.15 377.8 14.2L377.8 14.2Q377.45 11.55 377.23 8.97 377 6.4 376.75 3.8L376.75 3.8Q376.6 0.85 376.53-2.05 376.45-4.95 376.4-7.85L376.4-7.85Q376.35-9.7 376.38-11.55 376.4-13.4 376.45-15.25L376.45-15.25Q376.55-16.1 376.65-16.95 376.75-17.8 376.85-18.65L376.85-18.65Q376.95-19.15 377.15-19.68 377.35-20.2 377.75-20.6L377.75-20.6Q378.65-21.5 379.73-21.25 380.8-21 381.2-19.85L381.2-19.85Q381.3-19.45 381.38-19 381.45-18.55 381.35-18.1L381.35-18.1Q381.3-17.9 381.28-17.68 381.25-17.45 381.25-17.2L381.25-17.2Q381.35-17.2 381.38-17.18 381.4-17.15 381.4-17.15ZM385.9-15.35L385.9-15.35Q384-12.25 383.15-8.88 382.3-5.5 381.8-2L381.8-2Q382.25-2.05 382.48-2.27 382.7-2.5 382.9-2.65L382.9-2.65Q385.35-4.65 386.25-7.23 387.15-9.8 387.05-12.85L387.05-12.85Q387-13.5 386.78-14.1 386.55-14.7 385.9-15.35ZM400.25-4.75L400.25-4.75Q400.25-4.05 400.3-3.3 400.35-2.55 400.25-1.75L400.25-1.75Q400.25-1.55 400.25-1.28 400.25-1 400.2-0.7L400.2-0.7Q400.05 0.3 399.15 0.5L399.15 0.5Q398.15 0.55 397.55-0.1L397.55-0.1Q397.2-0.5 397.03-1 396.85-1.5 396.65-2L396.65-2Q396.45-2.9 396.33-3.8 396.2-4.7 396.15-5.6L396.15-5.6Q395.85-8.35 395.78-11.1 395.7-13.85 395.6-16.6L395.6-16.6Q395.55-20.55 395.53-24.45 395.5-28.35 395.55-32.3L395.55-32.3Q395.55-32.65 395.58-32.98 395.6-33.3 395.7-33.65L395.7-33.65Q395.95-34.35 396.5-34.83 397.05-35.3 397.8-35.3L397.8-35.3Q399.35-35.3 399.8-33.65L399.8-33.65Q399.95-33.2 399.95-32.75L399.95-32.75Q400.15-29.5 400.23-26.25 400.3-23 400.35-19.75L400.35-19.75Q400.35-19.4 400.35-18.1 400.35-16.8 400.35-15.03 400.35-13.25 400.33-11.3 400.3-9.35 400.3-7.63 400.3-5.9 400.25-4.75ZM415.25-3.85L415.25-3.85Q414.9-3.6 414.73-3.23 414.55-2.85 414.3-2.6L414.3-2.6Q413.8-1.85 413.2-1.23 412.6-0.6 411.75-0.25L411.75-0.25Q410.35 0.4 408.93-0.18 407.5-0.75 406.95-2.2L406.95-2.2Q405.85-5 406.33-7.55 406.8-10.1 408.6-12.4L408.6-12.4Q409.6-13.65 410.98-14.18 412.35-14.7 414-14.35L414-14.35Q414.1-14.35 414.18-14.33 414.25-14.3 414.35-14.3L414.35-14.3Q414.55-14.7 414.45-15.03 414.35-15.35 414.3-15.7L414.3-15.7Q414.1-16.8 413.83-17.8 413.55-18.8 413.15-19.75L413.15-19.75Q412.55-21.05 412.08-21.15 411.6-21.25 410.55-20.35L410.55-20.35Q408.9-18.95 407.7-17L407.7-17Q407.3-16.5 407.3-16L407.3-16Q407.3-14.9 406.25-14.6L406.25-14.6Q405.9-14.5 405.4-14.7 404.9-14.9 404.6-15.25L404.6-15.25Q403.95-16.25 404.15-17.45L404.15-17.45Q404.35-18.6 404.8-19.63 405.25-20.65 405.9-21.55L405.9-21.55Q406.6-22.55 407.4-23.38 408.2-24.2 409.2-24.85L409.2-24.85Q410.8-25.85 412.68-25.73 414.55-25.6 416-23.95L416-23.95Q416.65-23.3 417.03-22.53 417.4-21.75 417.75-20.9L417.75-20.9Q418.3-19.35 418.68-17.75 419.05-16.15 419.25-14.5L419.25-14.5Q419.5-12.25 419.7-10.05 419.9-7.85 420.05-5.6L420.05-5.6Q420.2-4.3 420.05-2.95L420.05-2.95Q419.95-1.45 418.8-0.83 417.65-0.2 416.4-1L416.4-1Q415.9-1.35 415.7-1.85 415.5-2.35 415.4-2.9L415.4-2.9Q415.35-3.15 415.35-3.38 415.35-3.6 415.25-3.85ZM411-5L411-5Q411.8-5.85 412.55-6.68 413.3-7.5 413.85-8.5L413.85-8.5Q414-8.8 413.83-9.22 413.65-9.65 413.3-9.85L413.3-9.85Q412.95-10.1 412.78-9.93 412.6-9.75 412.35-9.65L412.35-9.65Q412.3-9.55 412.2-9.45 412.1-9.35 412.05-9.25L412.05-9.25Q411.4-8.3 411.1-7.28 410.8-6.25 411-5ZM434.75-7.25L434.75-7.25Q434.3-6.6 433.93-6 433.55-5.4 433.1-4.85L433.1-4.85Q432.55-4.2 431.93-3.65 431.3-3.1 430.5-2.75L430.5-2.75Q428.6-2.05 427.1-3.1L427.1-3.1Q426.45-3.55 426.03-4.2 425.6-4.85 425.25-5.6L425.25-5.6Q424.6-7 424.28-8.53 423.95-10.05 423.9-11.6L423.9-11.6Q423.9-12.75 423.98-13.95 424.05-15.15 424.4-16.25L424.4-16.25Q424.6-17.05 425.15-17.75L425.15-17.75Q425.45-18 425.83-18.15 426.2-18.3 426.65-18.2L426.65-18.2Q427.45-18 427.55-17L427.55-17Q427.65-16.35 427.65-15.68 427.65-15 427.7-14.3L427.7-14.3Q427.7-12.5 427.85-10.75 428-9 428.45-7.25L428.45-7.25Q428.55-6.85 428.7-6.38 428.85-5.9 429.3-5.8L429.3-5.8Q429.75-5.7 430.05-6.03 430.35-6.35 430.65-6.65L430.65-6.65Q431.35-7.35 431.83-8.15 432.3-8.95 432.65-9.85L432.65-9.85Q433.3-11.05 433.68-12.3 434.05-13.55 434.4-14.8L434.4-14.8Q434.5-15.25 434.48-15.7 434.45-16.15 434.45-16.6L434.45-16.6Q434.45-17.3 434.5-17.98 434.55-18.65 434.6-19.3L434.6-19.3Q434.75-20.15 435.05-20.65L435.05-20.65Q435.7-21.5 436.7-21.45 437.7-21.4 438.15-20.45L438.15-20.45Q438.5-19.8 438.6-19.13 438.7-18.45 438.75-17.75L438.75-17.75Q439-15.95 439.05-14.1 439.1-12.25 439.1-10.4L439.1-10.4Q439.1-7.6 439.1-4.73 439.1-1.85 439.05 0.95L439.05 0.95Q439 2.55 438.85 4.17 438.7 5.8 438.3 7.4L438.3 7.4Q438 8.55 437.48 9.58 436.95 10.6 435.95 11.45L435.95 11.45Q435.3 12 434.55 12.2 433.8 12.4 432.95 12.1L432.95 12.1Q432.05 11.85 431.58 11.15 431.1 10.45 430.95 9.65L430.95 9.65Q430.5 7.75 430.7 5.95L430.7 5.95Q430.8 5.55 430.95 5.18 431.1 4.8 431.4 4.55L431.4 4.55Q431.55 4.3 431.83 4.17 432.1 4.05 432.35 4.15L432.35 4.15Q433.05 4.4 433.1 5L433.1 5Q433.1 5.15 433.15 5.35 433.2 5.55 433.2 5.75L433.2 5.75Q433.2 6.75 433.7 7.6L433.7 7.6Q434 7.55 434.1 7.38 434.2 7.2 434.25 7L434.25 7Q434.5 6.2 434.63 5.43 434.75 4.65 434.75 3.85L434.75 3.85Q434.85 2.8 434.95 1.73 435.05 0.65 435.05-0.4L435.05-0.4Q435-2.1 435-3.83 435-5.55 434.75-7.25ZM458.2-2.2L458.2-2.2Q459.35-3.05 460-4L460-4Q460.9-5.25 461.78-6.55 462.65-7.85 463.3-9.25L463.3-9.25Q463.35-9.45 463.4-9.58 463.45-9.7 463.45-9.85L463.45-9.85Q463.5-10.9 464.65-11.15L464.65-11.15Q465.8-11.25 466.35-10.3L466.35-10.3Q466.65-9.95 466.73-9.58 466.8-9.2 466.8-8.75L466.8-8.75Q466.6-6.1 465.4-3.65L465.4-3.65Q463.9-0.7 461.4 1.25L461.4 1.25Q460.85 1.7 460.28 2.02 459.7 2.35 459 2.5L459 2.5Q457.75 2.8 456.5 2.27 455.25 1.75 454.5 0.65L454.5 0.65Q454.05-0.1 453.7-0.93 453.35-1.75 453.1-2.6L453.1-2.6Q452.45-4.45 452.15-6.4 451.85-8.35 451.6-10.3L451.6-10.3Q451.2-13.1 450.98-16 450.75-18.9 450.75-21.8L450.75-21.8Q450.75-22.35 450.65-22.45 450.55-22.55 449.95-22.45L449.95-22.45Q449.3-22.3 448.63-22.13 447.95-21.95 447.25-21.85L447.25-21.85Q446.4-21.65 445.45-22.1L445.45-22.1Q444.55-22.65 444.45-23.63 444.35-24.6 445.05-25.3L445.05-25.3Q445.75-25.9 446.55-26.15L446.55-26.15Q447.45-26.4 448.33-26.65 449.2-26.9 450.1-27.1L450.1-27.1Q450.7-27.2 450.83-27.33 450.95-27.45 451-28.1L451-28.1Q451.05-29.8 451.28-31.48 451.5-33.15 451.95-34.85L451.95-34.85Q452.15-35.45 452.33-36.08 452.5-36.7 452.85-37.25L452.85-37.25Q453.15-37.65 453.45-37.98 453.75-38.3 454.15-38.5L454.15-38.5Q455.1-39.15 456.25-38.6L456.25-38.6Q456.75-38.25 456.88-37.75 457-37.25 456.9-36.7L456.9-36.7Q456.8-35.6 456.5-34.52 456.2-33.45 456.1-32.3L456.1-32.3Q456-31.35 455.88-30.4 455.75-29.45 455.65-28.45L455.65-28.45Q455.65-28 455.73-27.93 455.8-27.85 456.3-27.85L456.3-27.85Q457.3-27.85 458.2-27.9 459.1-27.95 460.05-27.95L460.05-27.95Q461.75-27.95 462.9-26.65L462.9-26.65Q463.2-26.4 463.38-26.08 463.55-25.75 463.6-25.4L463.6-25.4Q463.7-24.55 463.05-23.93 462.4-23.3 461.7-23.6L461.7-23.6Q461.6-23.6 461.48-23.63 461.35-23.65 461.2-23.6L461.2-23.6Q460.1-23.2 458.98-23.25 457.85-23.3 456.7-23.15L456.7-23.15 456-23.15Q455.4-23.15 455.4-22.55L455.4-22.55Q455.5-21.6 455.5-20.68 455.5-19.75 455.55-18.8L455.55-18.8Q455.65-16.35 455.9-13.9 456.15-11.45 456.55-9.05L456.55-9.05Q456.7-7.8 456.93-6.58 457.15-5.35 457.5-4.1L457.5-4.1Q457.6-3.65 457.8-3.2 458-2.75 458.2-2.2ZM475.25-16.1L475.45-16.1Q475.65-16.65 475.78-17.23 475.9-17.8 476.05-18.4L476.05-18.4Q476.25-19.1 476.55-19.7 476.85-20.3 477.35-20.8L477.35-20.8Q478.2-21.65 479.3-21.85 480.4-22.05 481.45-21.4L481.45-21.4Q482.75-20.55 483.35-19L483.35-19Q483.95-17.6 484.23-16.1 484.5-14.6 484.7-13.1L484.7-13.1Q484.85-10.85 484.7-8.65 484.55-6.45 484.3-4.25L484.3-4.25Q484.25-3.85 484.13-3.48 484-3.1 483.7-2.75L483.7-2.75Q483.45-2.35 482.98-2.15 482.5-1.95 482.05-2.15L482.05-2.15Q481.2-2.35 481.1-3.5L481.1-3.5Q480.9-5.35 480.68-7.2 480.45-9.05 480.2-10.9L480.2-10.9Q480-12 479.95-13.05 479.9-14.1 479.65-15.1L479.65-15.1Q479.45-15.1 479.4-14.98 479.35-14.85 479.3-14.75L479.3-14.75Q478.2-12.2 477.53-9.58 476.85-6.95 476.6-4.15L476.6-4.15Q476.55-3.35 476.43-2.55 476.3-1.75 476.2-0.95L476.2-0.95Q475.95 0.65 474.4 0.8L474.4 0.8Q473.8 0.8 473.25 0.33 472.7-0.15 472.6-0.85L472.6-0.85Q472.45-1.65 472.38-2.4 472.3-3.15 472.25-3.95L472.25-3.95Q472.05-5.7 471.85-7.48 471.65-9.25 471.5-11L471.5-11Q471.3-13.05 471.1-15.08 470.9-17.1 470.8-19.1L470.8-19.1Q470.7-20.9 470.65-22.65 470.6-24.4 470.6-26.2L470.6-26.2Q470.6-28.1 470.63-30.08 470.65-32.05 471.05-33.95L471.05-33.95Q471.15-34.55 471.33-35.13 471.5-35.7 471.85-36.2L471.85-36.2Q472.25-36.8 472.88-37.1 473.5-37.4 474.1-37.15L474.1-37.15Q475.45-36.85 475.45-35.2L475.45-35.2Q475.55-32.25 475.38-29.25 475.2-26.25 475.25-23.3L475.25-23.3Q475.3-21.5 475.28-19.7 475.25-17.9 475.25-16.1L475.25-16.1ZM488.55-8.95L488.55-8.95Q488.55-11.3 489.23-13.48 489.9-15.65 491-17.75L491-17.75Q491.55-18.75 492.3-19.65 493.05-20.55 494-21.2L494-21.2Q495.3-22.1 496.7-22.25L496.7-22.25Q498.2-22.35 499.4-21.6 500.6-20.85 501.25-19.58 501.9-18.3 501.65-16.7L501.65-16.7Q501.6-16.25 501.45-15.75 501.3-15.25 501.05-14.8L501.05-14.8Q500.4-13.55 499.53-12.43 498.65-11.3 497.4-10.45L497.4-10.45Q496.6-9.9 495.73-9.53 494.85-9.15 493.85-9.2L493.85-9.2Q493.5-9.2 493.43-9.1 493.35-9 493.35-8.65L493.35-8.65Q493.3-7.85 493.45-7.05 493.6-6.25 493.85-5.45L493.85-5.45Q494.15-4.8 494.4-4.7 494.65-4.6 495.3-5L495.3-5Q496.25-5.5 497-6.35L497-6.35Q497.45-6.75 497.9-7.08 498.35-7.4 498.8-7.75L498.8-7.75Q499-7.95 499.4-8.15L499.4-8.15Q500.15-8.4 500.68-8.03 501.2-7.65 501.2-6.85L501.2-6.85Q501.2-6.5 501.15-6.15 501.1-5.8 501-5.45L501-5.45Q500.35-3.55 499.15-2.15 497.95-0.75 495.9-0.1L495.9-0.1Q493.05 0.65 490.95-1.45L490.95-1.45Q489.85-2.55 489.4-3.9 488.95-5.25 488.7-6.7L488.7-6.7Q488.65-7.25 488.63-7.83 488.6-8.4 488.55-8.95ZM497.9-17.2L497.9-17.2Q497.9-17.55 497.85-17.82 497.8-18.1 497.55-18.2L497.55-18.2Q497.2-18.4 496.65-17.95L496.65-17.95Q496.45-17.85 496.3-17.7 496.15-17.55 495.95-17.35L495.95-17.35Q495.3-16.55 494.88-15.6 494.45-14.65 494.1-13.7L494.1-13.7Q493.85-13.35 494.15-13.15L494.15-13.15Q494.25-13.05 494.43-13.08 494.6-13.1 494.7-13.15L494.7-13.15Q496.95-14.4 497.85-16.85L497.85-16.85Q497.9-16.95 497.9-17.07 497.9-17.2 497.9-17.2ZM522-13.15L522-13.15Q522.15-13.6 522.3-14.05 522.45-14.5 522.65-14.9L522.65-14.9Q523.6-17.25 525.35-18.95L525.35-18.95Q525.9-19.4 526.43-19.7 526.95-20 527.6-20L527.6-20Q528.7-20 529.35-19.45 530-18.9 530.45-18.05L530.45-18.05Q530.7-17.6 530.8-17.1 530.9-16.6 531.05-16.1L531.05-16.1Q531.35-16.25 531.45-16.48 531.55-16.7 531.6-16.9L531.6-16.9Q532.1-17.9 532.68-18.8 533.25-19.7 534.05-20.45L534.05-20.45Q535.5-21.7 537.25-21.75 539-21.8 540.3-19.9L540.3-19.9Q541-18.95 541.3-17.9 541.6-16.85 541.8-15.8L541.8-15.8Q542.15-13.65 542.25-11.55 542.35-9.45 542.1-7.3L542.1-7.3Q541.9-6.3 541.85-5.33 541.8-4.35 541.7-3.35L541.7-3.35Q541.65-2.85 541.8-2.2L541.8-2.2Q541.9-1.65 541.63-1.15 541.35-0.65 540.8-0.5L540.8-0.5Q540.3-0.3 539.83-0.48 539.35-0.65 539-1.15L539-1.15Q538.7-1.85 538.55-2.5L538.55-2.5Q538.35-4.05 538.1-5.6 537.85-7.15 537.6-8.65L537.6-8.65Q537.5-9.65 537.48-10.65 537.45-11.65 537.45-12.65L537.45-12.65Q537.4-13.5 537.25-14.3 537.1-15.1 537-15.95L537-15.95Q536.95-16.2 536.88-16.45 536.8-16.7 536.55-16.9L536.55-16.9Q536-16.65 535.6-16.23 535.2-15.8 534.8-15.25L534.8-15.25Q534.15-14.25 533.58-13.13 533-12 532.55-10.85L532.55-10.85Q532.2-9.75 531.88-8.63 531.55-7.5 531.35-6.35L531.35-6.35Q531.3-5.95 531.3-5.58 531.3-5.2 531.2-4.85L531.2-4.85Q531.1-3.1 529.55-2.95L529.55-2.95Q528.1-2.7 527.6-4.4L527.6-4.4Q527.35-5.25 527.27-6.1 527.2-6.95 527-7.75L527-7.75Q526.85-9.2 526.77-10.6 526.7-12 526.65-13.4L526.65-13.4Q526.65-13.7 526.5-13.75L526.5-13.75Q526.2-13.6 526.1-13.33 526-13.05 525.9-12.8L525.9-12.8Q523.85-7.65 523.7-2.2L523.7-2.2Q523.7-1.85 523.65-1.4 523.6-0.95 523.35-0.55L523.35-0.55Q522.7 0.4 521.65 0.48 520.6 0.55 519.8-0.35L519.8-0.35Q519.3-1 519.05-2.05L519.05-2.05Q518.6-3.75 518.25-5.5 517.9-7.25 517.65-8.95L517.65-8.95Q517.3-11.05 517.05-13.13 516.8-15.2 516.8-17.3L516.8-17.3Q516.75-18 516.8-18.75 516.85-19.5 517.1-20.2L517.1-20.2Q517.4-20.75 517.95-21.15 518.5-21.55 519.05-21.5L519.05-21.5Q519.7-21.5 520.18-21.1 520.65-20.7 520.85-20.05L520.85-20.05Q521.1-19.45 521.13-18.82 521.15-18.2 521.25-17.5L521.25-17.5Q521.5-15.65 521.7-13.6L521.7-13.6Q521.7-13.35 522-13.15ZM556.5-3.85L556.5-3.85Q556.15-3.6 555.98-3.23 555.8-2.85 555.55-2.6L555.55-2.6Q555.05-1.85 554.45-1.23 553.85-0.6 553-0.25L553-0.25Q551.6 0.4 550.18-0.18 548.75-0.75 548.2-2.2L548.2-2.2Q547.1-5 547.58-7.55 548.05-10.1 549.85-12.4L549.85-12.4Q550.85-13.65 552.23-14.18 553.6-14.7 555.25-14.35L555.25-14.35Q555.35-14.35 555.43-14.33 555.5-14.3 555.6-14.3L555.6-14.3Q555.8-14.7 555.7-15.03 555.6-15.35 555.55-15.7L555.55-15.7Q555.35-16.8 555.08-17.8 554.8-18.8 554.4-19.75L554.4-19.75Q553.8-21.05 553.33-21.15 552.85-21.25 551.8-20.35L551.8-20.35Q550.15-18.95 548.95-17L548.95-17Q548.55-16.5 548.55-16L548.55-16Q548.55-14.9 547.5-14.6L547.5-14.6Q547.15-14.5 546.65-14.7 546.15-14.9 545.85-15.25L545.85-15.25Q545.2-16.25 545.4-17.45L545.4-17.45Q545.6-18.6 546.05-19.63 546.5-20.65 547.15-21.55L547.15-21.55Q547.85-22.55 548.65-23.38 549.45-24.2 550.45-24.85L550.45-24.85Q552.05-25.85 553.93-25.73 555.8-25.6 557.25-23.95L557.25-23.95Q557.9-23.3 558.28-22.53 558.65-21.75 559-20.9L559-20.9Q559.55-19.35 559.93-17.75 560.3-16.15 560.5-14.5L560.5-14.5Q560.75-12.25 560.95-10.05 561.15-7.85 561.3-5.6L561.3-5.6Q561.45-4.3 561.3-2.95L561.3-2.95Q561.2-1.45 560.05-0.83 558.9-0.2 557.65-1L557.65-1Q557.15-1.35 556.95-1.85 556.75-2.35 556.65-2.9L556.65-2.9Q556.6-3.15 556.6-3.38 556.6-3.6 556.5-3.85ZM552.25-5L552.25-5Q553.05-5.85 553.8-6.68 554.55-7.5 555.1-8.5L555.1-8.5Q555.25-8.8 555.08-9.22 554.9-9.65 554.55-9.85L554.55-9.85Q554.2-10.1 554.03-9.93 553.85-9.75 553.6-9.65L553.6-9.65Q553.55-9.55 553.45-9.45 553.35-9.35 553.3-9.25L553.3-9.25Q552.65-8.3 552.35-7.28 552.05-6.25 552.25-5ZM575.05-13.25L575.05-13.25Q574.15-12.45 573.75-11.6L573.75-11.6Q572.7-9.75 572.05-7.7 571.4-5.65 571.05-3.5L571.05-3.5Q571-3 570.85-2.5 570.7-2 570.45-1.6L570.45-1.6Q569.7-0.35 568.45-0.5L568.45-0.5Q567.8-0.5 567.35-0.85 566.9-1.2 566.55-1.75L566.55-1.75Q566.35-2.2 566.27-2.7 566.2-3.2 566.1-3.7L566.1-3.7Q565.85-5.7 565.58-7.73 565.3-9.75 565.2-11.75L565.2-11.75Q565.1-13.1 565.2-14.45 565.3-15.8 565.5-17.15L565.5-17.15Q565.5-17.4 565.6-17.63 565.7-17.85 565.75-18.05L565.75-18.05Q566.2-19.3 567.4-19.15L567.4-19.15Q567.9-19.1 568.3-18.7 568.7-18.3 568.75-17.75L568.75-17.75Q568.9-16.55 569.02-15.4 569.15-14.25 569.35-13.1L569.35-13.1Q569.4-12.9 569.4-12.63 569.4-12.35 569.55-12.1L569.55-12.1Q569.8-12.2 569.85-12.38 569.9-12.55 569.95-12.7L569.95-12.7Q570.45-13.7 570.95-14.68 571.45-15.65 572.1-16.45L572.1-16.45Q572.4-16.85 572.7-17.23 573-17.6 573.4-17.9L573.4-17.9Q574.7-18.95 576.2-18.73 577.7-18.5 578.65-17.05L578.65-17.05Q579.1-16.25 579.35-15.38 579.6-14.5 579.7-13.6L579.7-13.6Q579.95-12.1 580.13-10.58 580.3-9.05 580.5-7.55L580.5-7.55Q580.6-6.65 580.77-5.78 580.95-4.9 581.05-4L581.05-4Q581.15-3.65 581.3-3.4 581.45-3.15 581.8-2.9L581.8-2.9Q582.85-2.35 582.45-1.15L582.45-1.15Q582 0.1 580.9 0.4 579.8 0.7 578.8-0.1L578.8-0.1Q578.35-0.5 578.05-0.95 577.75-1.4 577.5-1.9L577.5-1.9Q576.7-3.35 576.3-4.85 575.9-6.35 575.7-8L575.7-8Q575.55-9.15 575.45-10.35 575.35-11.55 575.1-12.7L575.1-12.7Q575.1-12.8 575.08-12.93 575.05-13.05 575.05-13.25ZM588.3-1.55L588.3-1.55Q587.5-1.45 586.9-2.1 586.3-2.75 586.3-3.4L586.3-3.4Q586.25-4.2 586.77-4.78 587.3-5.35 588.1-5.45L588.1-5.45Q588.7-5.5 589.32-5.03 589.95-4.55 590.05-3.85L590.05-3.85 590.05-3.05Q589.95-2.2 589.55-1.88 589.15-1.55 588.3-1.55Z" opacity="1" transform="matrix(1,0,0,1,0,0)" fill="#2e30ff" class="slogan-text-1" data-fill-palette-color="secondary" id="text-1"></path></svg></g></svg></g></svg></g></svg></g><g></g></svg></g></svg></g></svg></g></svg></g><defs></defs></svg><rect width="320" height="360" fill="none" stroke="none" visibility="hidden"></rect></g></svg></g></svg>